<svg width="60" height="60" fill="none" xmlns="http://www.w3.org/2000/svg"><rect width="59.933" height="59.933" rx="29.967" fill="#000"/><path fill-rule="evenodd" clip-rule="evenodd" d="M17.967 29.825v7.36l4.275-.017c4.73-.018 4.448-.001 5.43-.33.695-.23 1.118-.489 1.635-.995.38-.372.48-.505.669-.877.39-.773.556-1.776.456-2.76-.174-1.722-.953-2.768-2.216-2.978-.314-.053-.328-.06-.178-.089a2.97 2.97 0 0 0 .507-.2c1.008-.49 1.503-1.575 1.366-2.995-.191-1.991-1.486-3.215-3.626-3.427-.325-.032-1.924-.05-4.414-.05h-3.904v7.358Zm15.555-5.56v.923h6.184v-1.845h-6.184v.922Zm-7.464.973c.278.133.468.377.584.75.083.266.094.394.074.83-.029.615-.124.943-.343 1.181-.329.358-.24.347-2.749.362l-2.237.014v-3.233h2.234c2.17 0 2.24.003 2.437.096Zm10.017.996c-1.415.116-2.601.645-3.473 1.548-.737.765-1.225 1.754-1.48 3-.146.72-.145 1.87.004 2.558.496 2.298 2.003 3.703 4.342 4.047.704.104 2.006.106 2.622.005.892-.146 1.569-.382 2.144-.747.977-.622 1.495-1.502 1.604-2.728l.033-.38h-2.66l-.057.264c-.134.627-.66 1.061-1.498 1.236-.415.087-1.22.084-1.602-.004-.7-.162-1.259-.579-1.545-1.151-.141-.282-.279-.839-.283-1.141l-.001-.127h7.742l-.025-1.003c-.019-.774-.047-1.1-.12-1.428-.542-2.388-1.959-3.68-4.308-3.93a8.32 8.32 0 0 0-1.439-.02Zm1.617 2.314c.722.277 1.214.962 1.335 1.863l.03.22H36.64c-2.138 0-2.415-.009-2.415-.071 0-.039.043-.2.096-.358.29-.857.97-1.518 1.767-1.716.4-.1 1.269-.066 1.604.062ZM26.08 30.724c.425.117.833.513 1.027 1 .144.363.159 1.327.026 1.725-.2.598-.686.968-1.39 1.055-.193.024-1.253.045-2.354.046l-2.003.001v-3.874h2.26c1.395 0 2.327.018 2.434.047Z" fill="#fff"/></svg>