<svg width="61" height="60" fill="none" xmlns="http://www.w3.org/2000/svg"><rect x=".867" width="59.933" height="59.933" rx="29.967" fill="#000"/><path fill-rule="evenodd" clip-rule="evenodd" d="M29.391 17.983c-.644.082-1.815.36-2.477.588-4.046 1.392-7 4.756-7.91 9.008-.157.73-.169.892-.17 2.348-.002 1.394.014 1.643.143 2.282.943 4.65 4.325 8.237 8.883 9.421 1.072.279 1.91.363 3.302.33 1.476-.035 2.167-.15 3.479-.581 4.117-1.353 7.167-4.829 8.047-9.17.128-.634.145-.894.145-2.25 0-1.356-.017-1.617-.145-2.25-.883-4.354-3.925-7.816-8.062-9.175-1.373-.451-1.978-.546-3.605-.563-.776-.009-1.51-.003-1.63.012Zm2.319 2.05c1.444.08 3.22.697 4.563 1.583.609.403.63.315-.246 1.05a17.262 17.262 0 0 1-3.325 2.165l-.605.304-.091-.14a8.99 8.99 0 0 1-.313-.576c-.598-1.184-1.596-2.677-2.572-3.848-.199-.24-.262-.357-.209-.387.167-.094 1.611-.23 2.077-.195.104.007.428.027.72.043Zm-4.486 1.537a18.72 18.72 0 0 1 2.581 3.725l.343.647-.36.135c-1.186.443-3.296.961-4.703 1.155-1.054.145-2.766.244-3.364.194l-.53-.044.095-.323c.687-2.34 2.45-4.523 4.674-5.784.319-.181.608-.329.643-.329.035 0 .315.28.621.624Zm11.889 2.847a9.61 9.61 0 0 1 1.183 2.406c.347 1.043.439 1.543.48 2.61l.038.945-1.121.044c-1.768.068-3.598.313-4.998.67-.271.068-.5.116-.507.106-.008-.01-.092-.337-.187-.726a29.392 29.392 0 0 0-.866-2.834l-.221-.6.667-.33a19.66 19.66 0 0 0 2.462-1.455c.694-.476 1.765-1.336 2.09-1.677l.188-.198.206.24c.114.13.377.49.586.799Zm-7.614 4.82c.124.38.332 1.111.463 1.625l.237.935-.856.323c-2.786 1.05-5.263 2.55-7.004 4.237l-.634.615-.437-.518a9.89 9.89 0 0 1-1.433-2.202c-.65-1.357-.897-2.348-.949-3.818l-.035-.996.777.04c2.448.128 6.032-.445 8.689-1.389l.672-.239.143.349c.078.192.243.659.367 1.038Zm8.946 3.397c-.096.408-.499 1.407-.79 1.956a10.076 10.076 0 0 1-4.369 4.273c-.558.283-.73.346-.744.273-.011-.052.011-.3.05-.552.115-.762.152-3.118.065-4.124a87.24 87.24 0 0 1-.087-1.053c-.01-.18-.01-.18 1.276-.441 1.522-.31 2.843-.465 4.216-.495l.424-.009-.04.172Zm-7.876 1.502c.027.13.049 1.038.048 2.019-.002 1.78-.04 2.21-.29 3.357l-.07.321-.38.043c-.57.065-1.906.047-2.43-.032a10.022 10.022 0 0 1-3.252-1.069c-.934-.488-.9-.432-.498-.842 1.326-1.353 3.396-2.65 5.856-3.665.483-.2.897-.364.922-.365.024 0 .066.104.094.233Z" fill="#fff"/></svg>