<svg width="61" height="60" fill="none" xmlns="http://www.w3.org/2000/svg"><rect x=".8" width="59.933" height="59.933" rx="29.967" fill="#000"/><path fill-rule="evenodd" clip-rule="evenodd" d="M24.081 17.54a6.94 6.94 0 0 0-5.734 5.76c-.107.656-.107 12.67 0 13.327a6.929 6.929 0 0 0 5.757 5.76c.657.106 12.668.106 13.325 0a6.931 6.931 0 0 0 5.758-5.76c.106-.656.106-12.67 0-13.327a6.93 6.93 0 0 0-5.758-5.76c-.605-.098-12.767-.098-13.348 0Zm13.444 2.307c.903.253 1.83.844 2.413 1.54.364.435.797 1.28.943 1.84l.109.416v12.641l-.109.415c-.146.562-.58 1.406-.943 1.84-.594.71-1.533 1.303-2.437 1.541l-.415.109H24.448l-.415-.109c-.904-.237-1.844-.831-2.438-1.54-.363-.435-.796-1.28-.943-1.84l-.108-.416V23.643l.109-.415a4.728 4.728 0 0 1 3.575-3.42c.391-.084.768-.088 6.66-.08l6.247.01.39.11Zm-.44 1.839c-.328.081-.501.178-.75.42-.33.32-.47.668-.47 1.17 0 .347.022.46.128.684a1.635 1.635 0 0 0 2.684.406c.299-.32.41-.62.41-1.114 0-.32-.024-.44-.13-.666a1.617 1.617 0 0 0-1.154-.914c-.311-.066-.401-.064-.717.014Zm-7.1 1.864c-.647.119-.956.191-1.268.298-2.196.752-3.788 2.555-4.278 4.847-.067.311-.09.627-.09 1.268 0 .642.023.958.09 1.27.551 2.576 2.484 4.509 5.059 5.06.583.125 1.954.125 2.537 0 2.576-.551 4.508-2.484 5.06-5.06.066-.312.089-.628.089-1.27 0-.641-.023-.957-.09-1.268-.546-2.556-2.466-4.491-5.01-5.052-.354-.079-1.822-.143-2.098-.093Zm1.806 2.34c.383.1 1.028.392 1.35.613.802.548 1.449 1.48 1.706 2.46.125.476.125 1.525 0 2.001a4.231 4.231 0 0 1-2.331 2.802c-.635.294-.986.369-1.75.369-.762 0-1.114-.075-1.748-.369-.95-.44-1.615-1.107-2.057-2.061-.29-.626-.364-.98-.364-1.741 0-.764.074-1.115.368-1.75.58-1.25 1.64-2.085 3.02-2.378.411-.087 1.378-.058 1.806.054Z" fill="#fff"/></svg>