<svg width="61" height="60" fill="none" xmlns="http://www.w3.org/2000/svg"><rect x=".933" width="59.933" height="59.933" rx="29.967" fill="#000"/><path fill-rule="evenodd" clip-rule="evenodd" d="M43.862 17.5c-.045.016-.424.166-.841.333-.418.167-.771.29-.785.276-.015-.015-.064.011-.11.058-.044.046-.114.072-.153.056-.04-.015-.08-.009-.089.015-.018.045-.524.254-2.394.987-.646.253-1.86.731-2.697 1.062-.837.33-1.55.606-1.584.612a.74.74 0 0 0-.173.071c-.234.13-.913.353-.969.318-.037-.024-.042-.01-.014.037.033.054.02.064-.049.037-.051-.02-.08-.014-.064.013.016.026-.013.061-.065.077a44.56 44.56 0 0 0-1.103.423c-.554.217-1.027.382-1.052.367-.024-.016-.044-.004-.044.025 0 .067-.323.187-.39.145-.026-.017-.047-.008-.047.02s-.437.222-.97.431c-.534.21-1.118.442-1.298.517-.18.074-.488.195-.683.268-.196.072-.54.206-.765.297-1.155.467-3.15 1.245-3.223 1.257-.046.007-.096.028-.11.047-.016.018-.299.14-.63.27-.33.13-.908.36-1.283.51-.376.15-1.114.44-1.64.645-.526.204-1.268.497-1.65.651-.4.161-.724.262-.765.238-.04-.023-.053-.021-.03.004.023.026-.183.141-.457.257-.5.211-.759.395-.759.54 0 .042-.02.065-.043.05-.09-.057.02.613.126.76.144.2.286.272 1.298.651.474.178.843.345.82.371-.023.027-.014.031.022.01.054-.032 1.286.399 1.461.51a.41.41 0 0 0 .126.05c.099.015.585.205.616.241a.236.236 0 0 0 .11.046c.045.008.593.208 1.22.444.97.366 1.133.444 1.11.531-.013.056-.008.091.012.078.02-.013.13.283.244.658l.471 1.55c.368 1.206.7 2.3 1.094 3.61.753 2.5.747 2.484 1.036 2.65.35.202.594.155 1.038-.2.266-.213 1.752-1.451 2.898-2.415.724-.609.9-.7 1.288-.667.323.028.272-.006 2.185 1.416.75.56 1.685 1.252 2.076 1.54.39.29.723.542.738.563.015.02.2.16.41.31.808.576 1.065.774 1.065.817 0 .025.025.045.055.045s.1.044.155.098c.055.054.147.126.204.16.088.052.093.076.033.15s-.056.085.028.07c.054-.01.092-.046.084-.082-.01-.047.015-.049.092-.006.292.16.83-.005.996-.306.087-.157.284-1.059.893-4.087.29-1.44.4-1.973.657-3.191.104-.493.2-.974.211-1.069.05-.394.386-1.9.428-1.917.024-.01.03-.042.014-.07-.028-.046.158-1.018.74-3.858.124-.6.384-1.886.579-2.856.194-.97.37-1.801.388-1.847a.291.291 0 0 0 .025-.127 3.017 3.017 0 0 1 .072-.42c.358-1.665.849-4.202.849-4.385 0-.123-.036-.296-.08-.383-.044-.087-.062-.176-.04-.197.02-.022.013-.034-.017-.027-.03.007-.146-.028-.257-.08-.199-.09-.48-.113-.644-.053Zm-5.106 5.155c.166.116.12.236-.22.575-.19.19-.36.345-.374.344-.016 0-.233.206-.484.458a96.43 96.43 0 0 1-1.94 1.865c-.127.118-1.143 1.083-2.26 2.146-1.117 1.062-2.053 1.925-2.08 1.917-.028-.008-.044.008-.037.034.012.041-.897.963-.99 1.003-.018.008-.29.266-.601.573-.313.306-.593.541-.624.522-.03-.02-.04-.011-.023.019.018.03-.177.252-.434.494-.798.753-.882.963-1.115 2.81-.093.734-.183 1.371-.2 1.418a1.216 1.216 0 0 0-.047.162c-.034.17-.341.236-.454.097-.057-.07-.38-1.162-.69-2.331-.07-.262-.203-.738-.296-1.059-.093-.32-.156-.595-.141-.61.015-.016.005-.056-.022-.09-.087-.108-.333-1.057-.333-1.286 0-.245.105-.594.179-.594.025 0 .032-.023.016-.051-.041-.068.239-.406.302-.366.028.017.05.008.05-.022s.19-.174.423-.32c.233-.147.732-.465 1.11-.706.376-.241.712-.439.746-.439.034 0 .07-.02.08-.045.023-.058 1.029-.694 1.029-.65 0 .017.04-.01.09-.06.118-.122.69-.452.747-.433.025.009.033-.006.017-.032-.04-.067.281-.25.357-.202.039.025.048.015.024-.025-.052-.086.035-.082.131.006.066.06.066.055.003-.03-.066-.09-.055-.107.098-.166.095-.037.172-.09.172-.12 0-.028.055-.004.122.055.106.092.112.093.046.006-.044-.058-.055-.119-.026-.145.141-.13 1.053-.667 1.082-.637.018.018.033.008.033-.023 0-.089 1.359-.925 1.43-.88.038.024.048.015.023-.025-.038-.064.024-.087.187-.07.065.008.067 0 .009-.04-.053-.037.053-.127.382-.325.25-.15.471-.268.49-.262.019.007.078-.038.131-.098.054-.06.12-.11.147-.11.028 0 .128-.06.224-.134.286-.22 1.19-.76 1.154-.688-.018.037.012.011.067-.056a.45.45 0 0 1 .178-.14.466.466 0 0 0 .171-.109c.052-.05.247-.183.434-.296.288-.172.354-.193.43-.132.08.064.081.06.016-.025-.065-.085-.056-.105.082-.167a.844.844 0 0 0 .183-.102c.04-.048.675-.446.709-.445.016 0 .055.02.087.042Z" fill="#fff"/></svg>